<?xml version="1.0" encoding="utf-8"?>
<!-- Generator: Adobe Illustrator 18.0.0, SVG Export Plug-In . SVG Version: 6.00 Build 0)  -->
<!DOCTYPE svg PUBLIC "-//W3C//DTD SVG 1.1 Tiny//EN" "http://www.w3.org/Graphics/SVG/1.1/DTD/svg11-tiny.dtd">
<svg version="1.1" baseProfile="tiny" id="hat" xmlns="http://www.w3.org/2000/svg" xmlns:xlink="http://www.w3.org/1999/xlink"
	 x="0px" y="0px" viewBox="0 0 1000 1000" xml:space="preserve">
<g>
	<path fill-rule="evenodd" d="M713.1,347.7L713.1,347.7l-0.1-0.2v0l-0.3-0.8l0,0l-0.1-0.3v0l0-0.1h0c-0.9-2.5-1.8-4.7-2.6-6.8
		c-3.4-8.1-7.5-15.9-12.3-23.3c-4.7-7.3-10.1-14.3-16.2-20.7l-3.9-4.2l-0.1,0.2c-6.2-6.1-12.9-11.7-20.1-16.7
		c-8.6-5.9-17.9-11-27.9-15.1c-18.6-7.6-37.8-11.2-56.7-11.1c-19.7,0.1-38.9,4.1-56.8,11.5c-17.8,7.5-34.2,18.4-48,32.3
		c-13.3,13.4-24.3,29.6-31.9,48.2c-7.6,18.6-11.2,37.8-11.1,56.7c0.1,19.7,4.1,38.9,11.5,56.8c7.5,17.8,18.4,34.2,32.3,48
		c13.4,13.3,29.6,24.3,48.2,31.9c10,4.1,20.2,7,30.5,8.8c8.7,1.5,17.4,2.2,26.1,2.2l-0.1,0.2l5.7-0.2c8.9-0.4,17.6-1.5,26.1-3.4
		c8.6-1.9,17-4.6,25.1-8c0.9-0.4,2.1-0.9,3.3-1.5c0.9-0.4,2-0.9,3.3-1.5l0,0l0.1-0.1l0,0l0.3-0.1l0,0l0.8-0.4l0,0l0.2-0.1l0,0
		c4-2,8-4.1,11.9-6.5c3.9-2.4,7.7-4.9,11.3-7.6l3-2.2l-0.1-0.1c3.6-2.9,7.2-5.9,10.6-9.1c4.2-4,8.3-8.3,12.1-12.9l3.2-3.8l-4.6-1.9
		l-41.3-16.9l-2.1-0.9l-1.7,1.6c-4.3,4-8.9,7.5-13.7,10.6c-4.8,3.1-10,5.8-15.4,8.1c-2.5,1-5,2-7.4,2.8c-2.5,0.8-5,1.5-7.6,2.2
		l-1.8,0.4l-0.1,0.1c-1.2,0.3-2.4,0.5-3.6,0.7c-1.9,0.3-3.7,0.6-5.5,0.9c-8.2,1-16.7,1-25.3-0.1c-3.3-0.5-6.7-1.1-10-1.9l5-12.3
		c1.9,0.1,3.8,0.1,5.6,0c11.8-0.6,23.6-5.2,32.7-12.9c6.4-5.4,11.3-12.2,14.7-20.5c1.7-4.2,2.9-8.6,3.5-13.1
		c2.5-19.6-7.6-32.1-20.7-45.7c-10.2-10.6-20-20.8-15.8-31.2c2.4-5.8,5.3-9.7,12.2-11.4c5.3-1.3,15.1,2.3,17.6,7.7
		c1.9,4,3.1,7.4,4.7,9.9c4.3,6.7,11.2,9.1,19,6.3c6.4-2.3,10.4-9.6,9.4-16c-1.2-7.4-4.5-13.5-8.1-18.9c-2.9-4.3-6.4-8.1-10.5-11.1
		l5.2-12.6c2.9,1.8,5.8,3.7,8.5,5.7c6.9,5.1,12.9,11.1,18.1,17.6c28,35.4,6.1,53.2,42.6,68.2l22,9l4.6,1.9l0.4-4.9
		c1.4-16.5,0.1-32.6-3.9-48.5C715.9,356.3,714.6,351.9,713.1,347.7z M591.1,314.7c-0.7,0-1.4,0-1.9-0.1l-0.5,0
		c-10.3,1-18.9,3.8-25.8,8.4c-10.6,7-17.6,19.9-19.8,32.4c-3.5,20.1,9.5,34.4,21.5,47.6c11.6,12.8,22.1,24.4,11,38.4
		c-2.8,3.5-7,6.1-11.5,7.3c-4.4,1.2-9.1,1.2-13.1-0.5l-3.4-1.4c-1.9-0.8-3.7-2-5.5-3.6c-5.3-4.9-5.8-10.4-9.5-16.2
		c-2-3.2-4.4-5.3-7.1-6.4c-4-1.6-7.9-1.7-11.5-0.2c-7.3,3-10.6,9.2-10.1,16.6c2.2,8.3,5.5,15.5,9.8,21.5c3.6,5.1,8,9.3,13.2,12.8
		l-4.4,10.7c-7.1-4.2-13.5-9.2-19.2-14.8C494,458,486.7,447,481.7,435c-5-12-7.7-24.9-7.7-38c0-12.6,2.4-25.5,7.5-38
		c5.1-12.5,12.4-23.3,21.3-32.3c9.2-9.3,20.2-16.6,32.2-21.6c12-5,24.9-7.7,38-7.7c8,0,16,0.9,24,2.9L591.1,314.7z"/>
	<path fill-rule="evenodd" d="M500,0C223.9,0,0,223.9,0,500c0,276.1,223.9,500,500,500c276.1,0,500-223.9,500-500
		C1000,223.9,776.1,0,500,0z M850,369.8c-1.7,3.9-3.8,7.8-6.2,11.8L682.5,632.4c12,5.9,24.1,11.9,36.3,18.1
		c178.8,90.2,2.3,335.7-172.5,147.3c-74.5-80.3-147.7-182.8-258.7-232c-28.3-12.5-74.1-23.5-116-24.5c-35.9-0.9-44.2-38,6.7-49.2
		c27.3-6,84.6-4.6,128,3.9l65.2-309.3c5.6-28.4,15.3-40.4,36.6-46.8c49.7-14.8,144.1-6.2,244.6,35c131.8,54,222.3,137.6,202.3,186.6
		C853.6,364.4,852,367.2,850,369.8z"/>
</g>
</svg>
