<?xml version="1.0" encoding="utf-8"?>
<!-- Generator: Adobe Illustrator 18.0.0, SVG Export Plug-In . SVG Version: 6.00 Build 0)  -->
<!DOCTYPE svg PUBLIC "-//W3C//DTD SVG 1.1 Tiny//EN" "http://www.w3.org/Graphics/SVG/1.1/DTD/svg11-tiny.dtd">
<svg version="1.1" baseProfile="tiny" xmlns="http://www.w3.org/2000/svg" xmlns:xlink="http://www.w3.org/1999/xlink" x="0px"
	 y="0px" viewBox="0 0 1000 1000" xml:space="preserve">
<g id="circle">
</g>
<g id="shadow">
</g>
<g id="hat">
	<path fill-rule="evenodd" d="M632.1,227.9c-10.9-2.7-21.9-4-32.8-3.9c-17.9,0.1-35.5,3.7-51.7,10.5c-16.3,6.8-31.2,16.8-43.8,29.5
		c-12.1,12.2-22.1,27-29.1,44c-7,17-10.2,34.5-10.2,51.7c0.1,17.9,3.7,35.5,10.5,51.7c6.8,16.3,16.8,31.2,29.5,43.8
		c7.7,7.7,16.4,14.5,26.1,20.2l6-14.5c-7-4.7-13-10.6-17.9-17.4c-5.9-8.2-10.4-18-13.4-29.3c-0.7-10,3.9-18.5,13.8-22.6
		c5-2.1,10.2-2,15.7,0.3c3.7,1.5,6.9,4.4,9.6,8.8c5,7.9,5.6,15.3,12.9,22.1c2.4,2.2,4.9,3.9,7.4,4.9l4.7,1.9
		c5.5,2.2,11.9,2.3,17.8,0.7c6.2-1.7,11.8-5.2,15.7-10c15.2-19.1,0.8-34.9-14.9-52.3c-16.3-18.1-34-37.5-29.2-64.9
		c3-17,12.5-34.5,27-44.1c9.4-6.3,21.2-10.1,35.2-11.4l0.7,0c0.7,0,1.6,0,2.6,0.1L632.1,227.9z M720.2,521.3
		c-4.9,3.6-10,7.1-15.3,10.3c-5.3,3.2-10.7,6.2-16.2,8.9l0,0l-0.3,0.1l0,0l-1,0.5l0,0l-0.4,0.2l0,0l-0.1,0.1l0,0
		c-1.8,0.8-3.2,1.5-4.5,2.1c-1.8,0.8-3.3,1.5-4.6,2c-11,4.6-22.5,8.3-34.2,10.9c-11.6,2.6-23.5,4.1-35.5,4.6l-7.7,0.3l0.1-0.2
		c-11.8,0.1-23.7-0.9-35.5-3c-14-2.5-27.9-6.4-41.5-12c-25.3-10.4-47.3-25.3-65.6-43.4c-19-18.9-33.9-41.2-44-65.4
		c-10.2-24.3-15.6-50.5-15.7-77.3c-0.1-25.8,4.8-52,15.1-77.2c10.4-25.3,25.3-47.3,43.4-65.6c18.9-19,41.2-33.9,65.4-44.1
		c24.3-10.1,50.5-15.6,77.3-15.7c25.8-0.1,52,4.8,77.2,15.1c13.6,5.6,26.3,12.5,38,20.6c9.9,6.8,19,14.5,27.4,22.8l0.1-0.2l5.3,5.7
		c8.2,8.8,15.6,18.3,22,28.2c6.5,10.1,12.1,20.7,16.7,31.7c1.2,2.8,2.4,5.9,3.6,9.2h0l0.1,0.1v0l0.1,0.4l0,0l0.4,1.1v0l0.1,0.3l0,0
		c2,5.8,3.8,11.7,5.3,17.7c5.5,21.7,7.2,43.7,5.3,66.1l-0.6,6.7l-6.3-2.6l-30-12.3c-49.8-20.4-20-44.6-58.1-92.8
		c-7-8.9-15.3-17-24.6-24c-3.7-2.8-7.5-5.3-11.5-7.8l-7,17.1c5.5,4.2,10.3,9.2,14.2,15.1c4.9,7.3,9.4,15.7,11,25.7
		c1.4,8.7-4.1,18.6-12.8,21.7c-10.6,3.8-20,0.5-25.8-8.6c-2.2-3.4-3.9-8.1-6.4-13.5c-3.4-7.3-16.6-12.2-23.9-10.5
		c-9.4,2.2-13.4,7.5-16.6,15.5c-5.8,14.1,7.7,28,21.5,42.4c17.9,18.5,31.6,35.5,28.2,62.2c-0.8,6.1-2.3,12.1-4.7,17.9
		c-4.6,11.3-11.3,20.6-20.1,28c-12.4,10.4-28.4,16.6-44.6,17.5c-2.6,0.1-5.1,0.1-7.7,0l-6.8,16.7c4.5,1.1,9.1,2,13.7,2.6
		c11.6,1.6,23.2,1.6,34.4,0.2c2.3-0.3,4.8-0.7,7.4-1.2c1.6-0.3,3.3-0.6,4.9-1l0.1-0.2l2.5-0.6c3.5-0.9,7-1.8,10.4-2.9
		c3.3-1.1,6.7-2.4,10.1-3.8c7.4-3.1,14.4-6.8,21-11c6.6-4.2,12.8-9.1,18.7-14.5l2.4-2.2l2.9,1.2l56.2,23l6.3,2.6l-4.3,5.2
		c-5.2,6.2-10.7,12.1-16.4,17.5c-4.6,4.4-9.4,8.5-14.4,12.4l0.1,0.1L720.2,521.3z M707.9,56.9c179.5,73.6,302.9,187.4,275.5,254.2
		c-1.7,4.1-3.9,7.9-6.6,11.5c-2.3,5.3-5.1,10.6-8.5,16.1L748.6,680.2c16.4,8.1,32.8,16.3,49.4,24.6c243.6,122.9,3.1,457.3-235,200.7
		c-101.5-109.3-201.1-249-352.5-316.1c-38.5-17.1-100.9-32.1-158-33.4c-48.8-1.2-60.2-51.7,9.1-67.1c37.2-8.2,115.3-6.2,174.4,5.3
		l88.8-421.3c7.6-38.6,20.8-55.1,49.8-63.7C442.4-11,570.9,0.7,707.9,56.9z"/>
</g>
</svg>
